<?xml version="1.0" encoding="utf-8"?>
<!-- Generator: Adobe Illustrator 21.1.0, SVG Export Plug-In . SVG Version: 6.00 Build 0)  -->
<svg version="1.1" id="Capa_1" xmlns="http://www.w3.org/2000/svg" xmlns:xlink="http://www.w3.org/1999/xlink" x="0px" y="0px"
	 viewBox="0 0 64 64" style="enable-background:new 0 0 64 64;" xml:space="preserve">
<style type="text/css">
	.st0{fill:#ADCB49;}
	.st1{fill:#823A8B;}
	.st2{fill:#31569E;}
</style>
<g>
	<circle class="st0" cx="38.9" cy="20.2" r="5.5"/>
	<circle class="st1" cx="17.9" cy="51.6" r="3.5"/>
	<path class="st2" d="M39.3,1.7c-10.3,0-18.7,8.4-18.7,18.7c0,5.2,2.2,10,5.7,13.4c0.1,0.5,0.8,3.4-0.8,5.6c-1.9,2-3.3,2-3.5,2
		c-1.3-0.5-2.8-0.9-4.3-0.9c-6.2,0-11.2,5-11.2,11.2c0,6.2,5,11.2,11.2,11.2s11.2-5,11.2-11.2c0-2.7-0.9-5.1-2.5-7
		c-0.7-1.7,0-3.8,0.7-4.9c1.2-1.7,2-2.4,5.2-2c2.1,0.9,4.5,1.4,6.9,1.4c10.3,0,18.7-8.4,18.7-18.7C58,10.1,49.6,1.7,39.3,1.7z
		 M17.8,59c-4,0-7.3-3.3-7.3-7.3c0-4,3.3-7.3,7.3-7.3c4,0,7.3,3.3,7.3,7.3C25.1,55.7,21.8,59,17.8,59z M39.3,32.7
		c-6.8,0-12.3-5.5-12.3-12.3c0-6.8,5.5-12.3,12.3-12.3c6.8,0,12.3,5.5,12.3,12.3C51.6,27.2,46.1,32.7,39.3,32.7z"/>
</g>
</svg>
