<?xml version="1.0" encoding="utf-8"?>
<!-- Generator: Adobe Illustrator 21.1.0, SVG Export Plug-In . SVG Version: 6.00 Build 0)  -->
<svg version="1.1" id="Layer_1" xmlns="http://www.w3.org/2000/svg" xmlns:xlink="http://www.w3.org/1999/xlink" x="0px" y="0px"
	 viewBox="0 0 598.2 310.1" style="enable-background:new 0 0 598.2 310.1;" xml:space="preserve">
<style type="text/css">
	.st0{fill:#B0CC49;}
	.st1{fill:#86868A;}
	.st2{fill:#83388C;}
	.st3{fill:#6D6E70;}
	.st4{fill:#FFFFFF;stroke:#FFFFFF;stroke-width:2.5984;stroke-miterlimit:10;}
</style>
<g>
	<path class="st0" d="M481.6,6.4c2.8,0,5.1,0.4,6.9,1.3c1.8,0.9,3.2,2,4.2,3.3c1,1.4,1.7,2.8,2.1,4.4c0.4,1.6,0.5,3.1,0.5,4.5v7.7
		c0,1.4-0.2,2.9-0.6,4.4c-0.4,1.5-1.2,2.9-2.3,4.2c-1.1,1.3-2.6,2.3-4.5,3.2c-1.9,0.8-4.3,1.3-7.3,1.3h-4v23.6
		c0,2.1-1.1,3.1-3.4,3.1h-2.5c-2.2,0-3.4-1.1-3.4-3.4V9.8c0-2.2,1.2-3.4,3.4-3.4H481.6z M476.6,13v20.9h3.3c1.2,0,2.1-0.2,2.9-0.7
		c0.8-0.5,1.4-1,1.9-1.7c0.5-0.7,0.8-1.5,1-2.4c0.2-0.9,0.3-1.7,0.3-2.6v-5.7c0-2.5-0.5-4.5-1.4-5.8c-1-1.3-2.5-2-4.6-2H476.6z"/>
	<path class="st0" d="M505.2,0c2.3,0,3.5,1.1,3.5,3.2v60.9c0,2.1-1.1,3.2-3.5,3.2h-1.6c-2.2,0-3.4-1.1-3.4-3.4V3.4
		c0-2.2,1.1-3.4,3.4-3.4H505.2z"/>
	<path class="st0" d="M526.9,18.8c4,0,7,0.8,9,2.5c2,1.7,2.9,4,2.9,7.1v35.3c0,2.4-1.1,3.5-3.4,3.5h-1.6c-1.3,0-2.3-0.3-2.7-1
		c-0.5-0.7-0.7-1.2-0.7-1.6c-0.8,0.5-1.9,1.1-3.4,1.9c-1.5,0.8-3.2,1.1-5.1,1.1c-2,0-3.6-0.7-4.9-2.1c-1.3-1.4-2-3.3-2-5.7V49.1
		c0-3,1-5.4,2.9-7.1c1.9-1.7,4.9-2.5,8.8-2.5h3.7V28.7c0-1.3-0.3-2.3-0.8-2.9c-0.5-0.7-1.4-1-2.7-1c-1.3,0-2.2,0.3-2.7,1
		c-0.5,0.7-0.8,1.7-0.8,2.9V31c0,2.2-1.2,3.4-3.5,3.4h-1.6c-2.2,0-3.4-1.1-3.4-3.4v-2.6c0-3.1,1-5.5,3-7.1
		C520,19.7,522.9,18.8,526.9,18.8z M526.6,45.3c-1.3,0-2.1,0.3-2.6,1.1c-0.4,0.7-0.6,1.7-0.6,3v8.6c0,1.3,0.3,2.3,0.8,2.9
		c0.5,0.7,1.4,1,2.7,1c1.3,0,2.2-0.3,2.7-1c0.5-0.7,0.8-1.7,0.8-2.9V45.3H526.6z"/>
	<path class="st0" d="M562.7,19.3c1.1,0,1.9,0.2,2.5,0.5c0.5,0.3,0.8,1.1,0.8,2.2v1.3c0,0.6-0.1,1.2-0.3,1.6l-13.9,36.6h11
		c1.1,0,1.8,0.1,2.4,0.4c0.5,0.3,0.8,1,0.8,2V65c0,1.1-0.3,1.7-0.8,2c-0.5,0.3-1.4,0.4-2.5,0.4h-16.7c-1.1,0-2-0.2-2.5-0.5
		c-0.6-0.4-0.8-1.1-0.8-2.2v-1.3c0-0.6,0.1-1.1,0.3-1.5l13.9-36.6h-11c-1.1,0-1.9-0.2-2.4-0.5c-0.5-0.3-0.8-1-0.8-2.1v-1
		c0-1,0.3-1.7,0.8-1.9c0.6-0.3,1.4-0.4,2.4-0.4H562.7z"/>
	<path class="st0" d="M581.2,18.8c4,0,7,0.8,9,2.5c2,1.7,2.9,4,2.9,7.1v35.3c0,2.4-1.1,3.5-3.4,3.5h-1.6c-1.4,0-2.3-0.3-2.7-1
		c-0.5-0.7-0.7-1.2-0.7-1.6c-0.8,0.5-1.9,1.1-3.4,1.9c-1.5,0.8-3.2,1.1-5.1,1.1c-2,0-3.6-0.7-4.9-2.1c-1.3-1.4-2-3.3-2-5.7V49.1
		c0-3,1-5.4,2.9-7.1c1.9-1.7,4.9-2.5,8.8-2.5h3.7V28.7c0-1.3-0.3-2.3-0.8-2.9c-0.5-0.7-1.4-1-2.7-1c-1.3,0-2.2,0.3-2.7,1
		c-0.5,0.7-0.8,1.7-0.8,2.9V31c0,2.2-1.2,3.4-3.4,3.4h-1.6c-2.2,0-3.4-1.1-3.4-3.4v-2.6c0-3.1,1-5.5,3-7.1
		C574.3,19.7,577.3,18.8,581.2,18.8z M581,45.3c-1.3,0-2.1,0.3-2.6,1.1c-0.4,0.7-0.6,1.7-0.6,3v8.6c0,1.3,0.3,2.3,0.8,2.9
		c0.5,0.7,1.4,1,2.7,1c1.3,0,2.2-0.3,2.7-1c0.5-0.7,0.8-1.7,0.8-2.9V45.3H581z"/>
</g>
<g>
	<g>
		<path class="st1" d="M200.6,45c6.7,0,12.2,1,16.5,3.1c4.3,2.1,7.6,4.8,10,8c2.4,3.2,4.1,6.7,5,10.5c0.9,3.8,1.3,7.4,1.3,10.7V96
			c0,3.4-0.5,6.9-1.5,10.5c-1,3.6-2.8,7-5.5,10c-2.6,3-6.2,5.6-10.7,7.6c-4.5,2-10.4,3-17.5,3h-9.5V184c0,5-2.7,7.5-8.1,7.5h-6.1
			c-5.4,0-8.1-2.7-8.1-8.1V53.1c0-5.4,2.8-8.1,8.3-8.1H200.6z M188.6,61v50.2h7.9c2.8,0,5.2-0.5,7-1.6c1.8-1.1,3.3-2.5,4.5-4.2
			c1.1-1.7,2-3.6,2.4-5.7c0.5-2.1,0.7-4.1,0.7-6.2V79.8c0-6.1-1.1-10.7-3.4-14c-2.3-3.2-6-4.9-11.1-4.9H188.6z"/>
		<path class="st1" d="M257.6,76c5.4,0,8.1,2.6,8.1,7.9v85c0,3.1,0.6,5.5,1.9,7.1c1.3,1.6,3.5,2.4,6.6,2.4c3.1,0,5.3-0.8,6.5-2.4
			c1.2-1.6,1.8-4,1.8-7.1v-85c0-5.3,2.7-7.9,8.1-7.9h4c5.4,0,8.1,2.6,8.1,7.9v99.3c0,5.5-2.7,8.3-8.1,8.3h-4c-2.7,0-4.7-0.6-6.1-1.8
			c-1.4-1.2-2-2.7-2-4.5c-1.9,1.2-4.6,2.7-8.1,4.6c-3.5,1.8-7.6,2.7-12.3,2.7c-4.7,0-8.7-1.6-11.8-5c-3.2-3.3-4.8-7.3-4.8-12V83.9
			c0-5.3,2.7-7.9,8.1-7.9H257.6z M279.9,37.3c1.1-1.6,2.6-2.7,4.7-3.1c2-0.5,3.9,0,5.7,1.5c1.9,1.5,2.8,3.2,2.8,5.3
			c0,1.9-0.6,3.4-1.8,4.7l-18.8,20.2c-2.2,2.8-4.7,3.2-7.7,1.2c-1.4-0.9-2-2.2-2-3.6s0.5-2.8,1.4-3.8L279.9,37.3z"/>
		<path class="st1" d="M331.1,29.7c5.4,0,8.1,2.6,8.1,7.7v44.9c1.9-1.2,4.6-2.7,8.1-4.5c3.5-1.8,7.6-2.7,12.3-2.7
			c4.7,0,8.7,1.7,11.8,5.2c3.2,3.4,4.8,7.7,4.8,12.8v81.3c0,5.3-1.6,9.6-4.8,13c-3.2,3.4-7.1,5.2-11.8,5.2c-4.7,0-8.8-0.9-12.3-2.7
			c-3.5-1.8-6.2-3.3-8.1-4.6c0,1.8-0.7,3.2-2,4.5c-1.4,1.2-3.4,1.8-6.3,1.8H327c-5.4,0-8.1-2.7-8.1-8.1V37.7c0-5.4,2.7-8.1,8.1-8.1
			H331.1z M347.5,89.1c-3.1,0-5.3,0.8-6.5,2.4c-1.2,1.6-1.8,4-1.8,7.1v70.2c0,2.4,0.6,4.6,1.8,6.6c1.2,2,3.4,2.9,6.5,2.9
			c3.1,0,5.3-0.8,6.6-2.4c1.3-1.6,1.9-4,1.9-7.1V98.6c0-3.1-0.6-5.5-1.9-7.1C352.8,89.9,350.6,89.1,347.5,89.1z"/>
		<path class="st1" d="M403.3,29.7c5.5,0,8.3,2.6,8.3,7.7v146.5c0,5.1-2.8,7.7-8.3,7.7h-3.8c-5.4,0-8.1-2.7-8.1-8.1V37.7
			c0-5.4,2.7-8.1,8.1-8.1H403.3z"/>
		<path class="st1" d="M438.9,38.8c3.4,0,6.2,1.1,8.6,3.4c2.4,2.3,3.5,5.2,3.5,8.7c0,3.2-1.2,6-3.5,8.4c-2.4,2.4-5.2,3.5-8.6,3.5
			c-3.5,0-6.4-1.2-8.7-3.5c-2.3-2.4-3.4-5.2-3.4-8.4c0-3.5,1.1-6.4,3.4-8.7C432.5,39.9,435.4,38.8,438.9,38.8z M440.9,76
			c5.4,0,8.1,2.5,8.1,7.5V184c0,2.4-0.7,4.3-2.2,5.6c-1.5,1.3-3.4,1.9-5.9,1.9h-4c-5.4,0-8.1-2.7-8.1-8.1V83.9
			c0-5.3,2.7-7.9,8.1-7.9H440.9z"/>
		<path class="st1" d="M493.8,75c9.4,0,16.6,2,21.4,6c4.9,4,7.3,9.7,7.3,17.1v18c0,5.3-2.7,7.9-8.1,7.9h-3.8c-5.5,0-8.3-2.6-8.3-7.9
			V98.6c0-3.1-0.6-5.5-1.9-7.1c-1.3-1.6-3.5-2.4-6.6-2.4c-3.1,0-5.3,0.8-6.5,2.4c-1.2,1.6-1.8,4-1.8,7.1v70.2c0,3.1,0.6,5.5,1.8,7.1
			c1.2,1.6,3.4,2.4,6.5,2.4c3.1,0,5.3-0.8,6.6-2.4c1.3-1.6,1.9-4,1.9-7.1v-17.6c0-5.4,2.8-8.1,8.3-8.1h3.8c5.4,0,8.1,2.7,8.1,8.1
			v18.2c0,7.3-2.4,13-7.1,17c-4.7,4-11.9,6.1-21.6,6.1c-9.7,0-16.9-2-21.5-6.1c-4.7-4-7-9.7-7-17V98c0-7.3,2.4-12.9,7.2-17
			C477.2,77,484.3,75,493.8,75z"/>
		<path class="st1" d="M565.2,75c9.7,0,16.9,2,21.6,6.1c4.7,4,7.1,9.7,7.1,17v85c0,5.7-2.7,8.5-8.1,8.5H582c-3.2,0-5.4-0.8-6.6-2.4
			c-1.1-1.6-1.7-2.9-1.7-3.8c-1.9,1.2-4.6,2.7-8.1,4.6c-3.5,1.8-7.6,2.7-12.3,2.7c-4.7,0-8.7-1.7-11.8-5.2c-3.2-3.4-4.8-8-4.8-13.7
			v-25.9c0-7.3,2.3-12.9,7-17c4.7-4,11.7-6.1,21.1-6.1h8.9V98.6c0-3.1-0.6-5.5-1.9-7.1c-1.3-1.6-3.5-2.4-6.6-2.4
			c-3.1,0-5.3,0.8-6.5,2.4c-1.2,1.6-1.8,4-1.8,7.1v5.7c0,5.4-2.8,8.1-8.3,8.1h-3.8c-5.4,0-8.1-2.7-8.1-8.1V98
			c0-7.4,2.4-13.1,7.2-17.1C548.6,77,555.7,75,565.2,75z M564.6,138.5c-3.1,0-5.2,0.8-6.2,2.5c-1,1.7-1.5,4.1-1.5,7.2v20.6
			c0,3.1,0.6,5.5,1.8,7.1c1.2,1.6,3.4,2.4,6.5,2.4c3.1,0,5.3-0.8,6.6-2.4c1.3-1.6,1.9-4,1.9-7.1v-30.3H564.6z"/>
	</g>
</g>
<ellipse class="st0" cx="93.3" cy="83.6" rx="16" ry="16"/>
<path class="st2" d="M42.7,174.3c0,5.6-4.5,10.1-10.1,10.1c-5.6,0-10.1-4.5-10.1-10.1c0-5.6,4.5-10.1,10.1-10.1
	C38.2,164.1,42.7,168.7,42.7,174.3z"/>
<path class="st1" d="M94.6,30.3c-29.7,0-53.9,24.2-53.9,53.9c0,15.1,6.3,28.8,16.3,38.6c0.4,1.5,2.4,9.7-2.2,16.2
	c-5.4,5.7-9.6,5.7-10.2,5.7c-3.8-1.6-8-2.4-12.3-2.4C14.5,142.3,0,156.8,0,174.6s14.5,32.3,32.3,32.3c17.8,0,32.3-14.5,32.3-32.3
	c0-7.7-2.7-14.7-7.2-20.3c-2.1-5-0.1-11,2.1-14.3c3.4-4.8,5.7-7,15-5.7c6.2,2.5,12.9,3.9,20,3.9c29.7,0,53.9-24.2,53.9-53.9
	C148.5,54.5,124.3,30.3,94.6,30.3z M32.3,195.8c-11.7,0-21.2-9.5-21.2-21.2c0-11.7,9.5-21.2,21.2-21.2c11.7,0,21.2,9.5,21.2,21.2
	C53.5,186.3,44,195.8,32.3,195.8z M94.6,119.7c-19.5,0-35.4-15.9-35.4-35.4c0-19.5,15.9-35.4,35.4-35.4c19.5,0,35.4,15.9,35.4,35.4
	C130,103.8,114.1,119.7,94.6,119.7z"/>
<rect x="1.5" y="240.2" class="st3" width="596.6" height="69.9"/>
<g>
	<path class="st4" d="M80.1,266.2c-1.3-1.1-2.7-2-4.3-2.7c-1.6-0.7-3.3-1-5.2-1c-1.9,0-3.6,0.4-5.2,1.1c-1.6,0.7-3.1,1.7-4.3,2.9
		c-1.2,1.2-2.2,2.7-2.9,4.3c-0.7,1.7-1.1,3.4-1.1,5.3c0,1.9,0.4,3.6,1.1,5.3c0.7,1.6,1.7,3.1,2.9,4.3c1.2,1.2,2.7,2.2,4.3,2.9
		c1.6,0.7,3.4,1.1,5.2,1.1c1.9,0,3.6-0.3,5.2-1c1.6-0.7,3-1.6,4.3-2.8c0.5-0.5,1-0.7,1.7-0.7c0.6,0,1.2,0.2,1.7,0.7
		c0.4,0.5,0.7,1,0.6,1.7c0,0.7-0.3,1.3-0.9,1.9c-0.5,0.5-1.1,1-1.9,1.5c-0.8,0.6-1.7,1.1-2.8,1.6c-1.1,0.5-2.3,0.9-3.6,1.2
		c-1.3,0.3-2.8,0.5-4.3,0.5c-2.5,0-4.9-0.5-7.1-1.4c-2.2-0.9-4.1-2.2-5.8-3.8c-1.7-1.6-3-3.5-3.9-5.7c-1-2.2-1.4-4.6-1.4-7.3
		c0-2.5,0.5-4.9,1.4-7.1c0.9-2.2,2.2-4.1,3.9-5.7c1.6-1.6,3.6-2.9,5.8-3.9c2.2-1,4.7-1.5,7.3-1.6c1.5,0,2.9,0.2,4.2,0.6
		c1.3,0.4,2.4,0.8,3.5,1.4c1,0.5,2,1.1,2.8,1.7c0.8,0.6,1.5,1.1,2,1.6c0.3,0.3,0.6,0.7,0.8,1.4c0.2,0.7,0.1,1.3-0.5,1.9
		c-0.5,0.4-1,0.7-1.7,0.7C81.1,266.9,80.6,266.7,80.1,266.2z"/>
	<path class="st4" d="M179.4,257.7c2.4,0,4.7,0.5,6.9,1.5c2.2,1,4.1,2.3,5.8,4c1.7,1.7,3,3.6,4,5.8c1,2.2,1.5,4.6,1.5,7.1V292
		c0,0.7-0.2,1.2-0.7,1.7c-0.5,0.5-1,0.7-1.7,0.7c-0.7,0-1.2-0.2-1.7-0.7c-0.5-0.5-0.7-1-0.7-1.7v-4.6c-1.7,1.9-3.7,3.5-6,4.8
		c-2.3,1.3-4.9,2-7.6,2c-2.5,0-4.9-0.5-7.1-1.4c-2.2-0.9-4.1-2.2-5.8-3.8c-1.7-1.6-3-3.5-3.9-5.7c-1-2.2-1.4-4.6-1.4-7.2
		c0-2.5,0.5-4.9,1.4-7.1c0.9-2.2,2.2-4.2,3.8-5.8c1.6-1.7,3.6-3,5.8-3.9C174.4,258.2,176.8,257.7,179.4,257.7z M165.8,276
		c0,1.9,0.3,3.6,1.1,5.2c0.7,1.6,1.7,3.1,2.9,4.3c1.2,1.2,2.7,2.2,4.3,2.9c1.6,0.7,3.4,1.1,5.2,1.1c1.8,0,3.5-0.3,5.1-1
		c1.6-0.7,3-1.6,4.3-2.8c1.2-1.2,2.2-2.6,2.9-4.3c0.7-1.6,1.1-3.4,1.2-5.4c0-1.9-0.4-3.6-1.1-5.3c-0.7-1.7-1.7-3.1-2.9-4.3
		c-1.2-1.2-2.7-2.2-4.3-2.9c-1.7-0.7-3.4-1.1-5.3-1.1c-1.9,0-3.6,0.3-5.2,1.1c-1.6,0.7-3.1,1.7-4.3,2.9c-1.2,1.2-2.2,2.7-2.9,4.3
		C166.1,272.4,165.8,274.2,165.8,276z"/>
	<path class="st4" d="M294.1,257.7c2.8,0.1,5.4,0.8,7.7,2.2c2.3,1.3,4.3,2.9,6,4.7v-16.2c0-0.6,0.2-1.2,0.7-1.7
		c0.4-0.5,1-0.7,1.7-0.7c0.7,0,1.2,0.2,1.7,0.7c0.4,0.5,0.7,1,0.7,1.7v43.6c0,0.7-0.2,1.2-0.7,1.7c-0.5,0.5-1,0.7-1.7,0.7
		c-0.7,0-1.2-0.2-1.7-0.7c-0.5-0.5-0.7-1-0.7-1.7v-3.5l-0.7,0.7c-1.7,1.6-3.6,2.9-5.8,3.8c-2.2,0.9-4.6,1.4-7,1.4
		c-2.6,0-5-0.5-7.2-1.4c-2.2-1-4.1-2.3-5.8-3.9c-1.6-1.7-2.9-3.6-3.9-5.8c-1-2.2-1.4-4.5-1.4-7c0-2.5,0.5-4.9,1.5-7.1
		c1-2.2,2.3-4.1,4-5.8c1.7-1.7,3.6-3,5.8-4C289.4,258.2,291.7,257.7,294.1,257.7z M307.8,276c-0.1-2-0.5-3.8-1.2-5.4
		c-0.7-1.7-1.7-3.1-2.9-4.3c-1.2-1.2-2.6-2.2-4.2-2.8c-1.6-0.7-3.3-1-5.1-1c-1.9,0-3.6,0.3-5.3,1.1c-1.7,0.7-3.1,1.7-4.3,2.9
		c-1.2,1.2-2.2,2.7-2.9,4.3c-0.7,1.7-1.1,3.4-1.1,5.3c0,1.9,0.4,3.6,1.1,5.2c0.7,1.6,1.7,3.1,2.9,4.3c1.2,1.2,2.7,2.2,4.3,2.9
		c1.7,0.7,3.4,1.1,5.3,1.1c1.9,0,3.6-0.3,5.2-1.1c1.6-0.7,3.1-1.7,4.3-2.9c1.2-1.2,2.2-2.7,2.9-4.3
		C307.4,279.6,307.8,277.9,307.8,276z"/>
	<path class="st4" d="M395.4,278.2c0.3,1.6,0.8,3.1,1.6,4.5c0.8,1.4,1.8,2.6,3,3.6c1.2,1,2.5,1.8,4,2.4c1.5,0.6,3.1,0.9,4.8,0.9
		c1.9,0,3.6-0.3,5.2-1c1.6-0.7,3-1.6,4.3-2.8c0.5-0.5,1-0.7,1.7-0.7c0.7,0,1.2,0.2,1.7,0.7c0.5,0.4,0.7,1,0.7,1.7s-0.2,1.2-0.7,1.7
		c-1.7,1.9-3.5,3.2-5.6,4c-2.1,0.8-4.5,1.2-7.2,1.2c-2.5,0-4.9-0.5-7.1-1.4c-2.2-0.9-4.1-2.2-5.8-3.8c-1.7-1.6-3-3.5-3.9-5.7
		c-1-2.2-1.4-4.6-1.4-7.2c0-2.5,0.5-4.9,1.4-7.1c0.9-2.2,2.2-4.1,3.9-5.7c1.6-1.6,3.6-2.9,5.8-3.9c2.2-1,4.7-1.5,7.3-1.6
		c2.4,0,4.7,0.5,6.8,1.4c2.1,1,4,2.2,5.7,3.8c1.7,1.6,3,3.5,4,5.7c1,2.2,1.5,4.5,1.6,6.9c0.1,0.9-0.1,1.5-0.6,2
		c-0.5,0.5-1.1,0.7-1.7,0.7H395.4z M408.8,262.4c-1.7,0-3.2,0.3-4.7,0.9c-1.5,0.6-2.8,1.4-4,2.3c-1.2,1-2.2,2.2-2.9,3.5
		c-0.8,1.4-1.3,2.8-1.6,4.4h26.6c-0.3-1.6-0.9-3-1.7-4.4c-0.8-1.4-1.8-2.5-3-3.5c-1.2-1-2.5-1.8-4-2.3
		C412,262.7,410.4,262.4,408.8,262.4z"/>
	<path class="st4" d="M506,259.9c0-0.6,0.2-1.2,0.7-1.7c0.4-0.5,1-0.7,1.7-0.7c0.7,0,1.2,0.2,1.7,0.7c0.5,0.5,0.7,1,0.7,1.7v0.8
		c0.9-0.9,2-1.6,3.4-2.3c1.4-0.7,2.8-1.1,4.3-1.1c2.1,0,4,0.5,5.7,1.4c1.7,0.9,3.1,2.2,4.2,3.7c1.2-1.6,2.6-2.8,4.3-3.7
		c1.7-0.9,3.6-1.4,5.7-1.4c1.7,0,3.3,0.3,4.8,1c1.5,0.7,2.8,1.5,3.9,2.6c1.1,1.1,2,2.4,2.6,3.9c0.7,1.5,1,3.1,1,4.8v22.2
		c0,0.7-0.2,1.2-0.7,1.7c-0.5,0.5-1,0.7-1.7,0.7c-0.7,0-1.2-0.2-1.7-0.7c-0.5-0.5-0.7-1-0.7-1.7v-22.2c0-1.1-0.2-2-0.6-3
		c-0.4-0.9-1-1.8-1.7-2.5c-0.7-0.7-1.5-1.3-2.5-1.7c-0.9-0.4-1.9-0.6-3-0.6c-1.1,0-2.1,0.2-3,0.6c-0.9,0.4-1.7,1-2.4,1.7
		c-0.7,0.7-1.2,1.5-1.6,2.5c-0.4,0.9-0.6,1.9-0.6,3v22.2c0,0.7-0.2,1.2-0.7,1.7c-0.5,0.5-1,0.7-1.7,0.7c-0.6,0-1.2-0.2-1.7-0.7
		c-0.5-0.5-0.7-1-0.7-1.7v-22.2c-0.1-2.2-0.9-4-2.4-5.5c-1.5-1.5-3.3-2.2-5.3-2.2c-2.1,0-3.9,0.7-5.3,2.2c-1.4,1.4-2.2,3.2-2.3,5.2
		v22.5c0,0.7-0.2,1.2-0.7,1.7c-0.5,0.5-1,0.7-1.7,0.7c-0.7,0-1.2-0.2-1.7-0.7c-0.5-0.5-0.7-1-0.7-1.7V259.9z"/>
</g>
</svg>
